<?xml version="1.0" standalone="no"?>
<!DOCTYPE svg PUBLIC "-//W3C//DTD SVG 20010904//EN"
 "http://www.w3.org/TR/2001/REC-SVG-20010904/DTD/svg10.dtd">
<svg version="1.0" xmlns="http://www.w3.org/2000/svg"
 width="512.000000pt" height="512.000000pt" viewBox="0 0 512.000000 512.000000"
 preserveAspectRatio="xMidYMid meet">
<metadata>
Created by potrace 1.16, written by Peter Selinger 2001-2019
</metadata>
<g transform="translate(0.000000,512.000000) scale(0.100000,-0.100000)"
fill="#FFF" stroke="none">
<path d="M2250 3580 c-9 -5 -9 -9 -1 -14 6 -4 11 -20 11 -35 0 -21 -6 -30 -22
-35 -19 -5 -20 -8 -8 -15 12 -9 12 -11 -2 -16 -24 -10 -50 -70 -42 -100 6 -23
4 -25 -30 -25 -32 0 -36 3 -36 25 0 14 -4 25 -10 25 -5 0 -10 -11 -10 -25 0
-20 -5 -25 -25 -25 -16 0 -25 -6 -25 -15 0 -10 10 -15 30 -15 17 0 30 -4 30
-10 0 -5 18 -20 40 -32 l40 -23 0 -78 0 -77 -29 -6 c-48 -10 -64 -35 -52 -81
6 -21 11 -54 11 -74 0 -34 -3 -37 -35 -43 -19 -4 -39 -15 -45 -26 -16 -29 -13
-100 5 -106 19 -7 19 -27 1 -79 -12 -34 -19 -40 -46 -43 -23 -2 -36 -12 -48
-33 -12 -20 -25 -29 -43 -29 -33 0 -57 -19 -61 -50 -2 -16 -11 -26 -28 -30
-19 -4 -26 -13 -28 -38 -3 -30 -6 -32 -53 -38 -27 -4 -49 -10 -49 -14 0 -5 -3
-15 -6 -24 -5 -13 1 -16 31 -16 21 0 34 -4 30 -10 -3 -5 -15 -10 -25 -10 -13
0 -22 -9 -26 -26 -5 -20 -11 -24 -28 -20 -11 3 -33 6 -48 6 -18 0 -28 5 -28
15 0 8 -2 15 -5 15 -10 0 -221 31 -242 35 -15 4 -33 -5 -56 -25 l-34 -29 -124
14 c-68 8 -140 18 -159 21 l-35 6 50 15 c255 74 519 213 843 446 134 96 86 77
-65 -26 -290 -199 -486 -302 -716 -379 l-152 -51 -97 13 -98 12 0 44 c0 32 4
44 15 44 19 0 19 29 0 36 -9 4 -15 19 -15 39 0 61 -13 155 -21 155 -5 0 -9
-70 -9 -155 0 -142 -2 -155 -18 -155 -26 0 -62 -28 -62 -48 0 -9 21 -44 46
-77 l45 -60 -28 -3 c-33 -4 -53 -19 -53 -39 0 -9 32 -45 72 -82 39 -36 127
-129 195 -205 l124 -140 -37 -19 c-36 -18 -37 -20 -19 -34 11 -7 37 -19 58
-25 21 -6 63 -34 95 -61 73 -63 202 -186 202 -191 0 -2 -19 -7 -42 -11 -46 -8
-85 -24 -59 -25 19 0 669 76 856 101 468 61 1500 236 1454 246 -9 2 -101 -10
-205 -26 -104 -17 -290 -46 -414 -65 -218 -34 -682 -90 -1175 -142 -132 -13
-274 -28 -315 -33 l-75 -8 -40 41 -40 40 80 8 c438 45 1588 186 2300 284 695
95 695 95 695 105 0 13 -27 11 -230 -16 -961 -130 -1416 -186 -2030 -250 -220
-22 -526 -45 -611 -45 -72 0 -79 2 -138 41 -34 23 -59 44 -57 46 7 7 410 39
786 63 179 11 381 25 450 31 328 26 1675 167 1918 201 108 15 109 33 1 25 -61
-5 -80 -4 -76 6 2 8 37 13 111 15 166 4 119 22 -58 22 -145 0 -154 1 -159 20
-4 17 -14 20 -71 20 -36 0 -66 4 -66 10 0 21 -36 29 -65 14 -32 -17 -29 -18
-42 21 -9 29 -11 30 -84 33 -66 2 -76 5 -84 25 -9 20 -19 22 -87 25 -69 2 -78
5 -78 22 0 10 5 20 12 22 24 8 -5 28 -42 28 -36 0 -39 2 -47 38 -6 27 -14 38
-31 40 -12 2 -22 8 -22 13 0 5 -17 7 -38 3 -47 -7 -72 13 -72 57 0 19 -5 29
-15 29 -10 0 -15 -10 -15 -30 0 -30 0 -30 -25 -14 -16 11 -25 26 -25 43 0 17
-10 36 -25 49 -36 32 -33 68 12 114 38 39 36 44 -16 50 -22 3 -27 12 -46 90
l-21 88 27 26 c19 18 41 28 66 29 45 3 58 25 14 25 -18 0 -31 5 -31 13 -1 7
-6 5 -14 -5 -15 -21 -42 -24 -49 -5 -4 9 -8 9 -15 -2 -12 -17 -32 -6 -32 20 0
16 7 19 50 19 28 0 50 5 50 10 0 6 -28 10 -65 10 l-65 0 0 30 c0 19 7 33 20
40 28 15 27 58 -2 62 -21 3 -23 9 -26 68 -4 88 -22 104 -22 19 0 -61 -2 -66
-30 -82 -39 -24 -43 -67 -5 -67 22 0 25 -4 25 -35 0 -31 -4 -37 -40 -52 -22
-10 -40 -23 -40 -30 0 -22 -18 -14 -23 10 -4 19 -4 18 -6 -5 -1 -30 -19 -36
-40 -15 -10 10 -12 8 -9 -8 2 -14 12 -21 33 -23 17 -2 42 -15 58 -30 30 -28
32 -45 21 -164 -6 -58 -10 -67 -28 -70 -12 -2 -22 -12 -24 -23 -3 -16 -1 -18
9 -7 18 16 29 15 29 -4 0 -10 -8 -15 -22 -14 -47 4 -60 0 -54 -15 3 -8 2 -15
-3 -15 -5 0 -6 -29 -3 -65 5 -71 2 -74 -57 -58 l-23 6 4 160 5 159 -31 19
c-59 36 -176 15 -192 -34 -4 -12 -7 -61 -6 -109 0 -87 0 -87 -26 -90 -23 -3
-27 -8 -30 -41 -2 -24 -8 -37 -15 -34 -9 3 -11 54 -8 199 l3 195 -23 17 c-26
18 -90 21 -119 6 -10 -5 -21 -21 -24 -35 -5 -18 -12 -25 -24 -23 -13 2 -18 15
-20 51 -3 43 1 52 32 88 20 21 36 43 36 48 0 6 -19 11 -42 13 l-42 3 -16 80
c-9 44 -19 89 -23 100 -5 16 4 27 42 53 26 17 55 32 64 32 13 0 17 9 17 40 0
22 -4 40 -10 40 -5 0 -10 -13 -10 -30 0 -42 -28 -40 -33 3 l-3 32 -8 -32 c-8
-29 -12 -33 -43 -33 -30 0 -33 2 -23 19 14 28 13 34 -15 75 -13 20 -22 43 -19
51 4 9 0 15 -10 15 -22 0 -21 49 0 65 15 11 15 12 -3 17 -12 3 -26 2 -33 -2z
m24 -136 c33 -13 17 -34 -24 -34 -42 0 -52 12 -22 29 20 12 25 13 46 5z m6
-74 c0 -5 -13 -10 -29 -10 -17 0 -33 5 -36 10 -4 6 8 10 29 10 20 0 36 -4 36
-10z m8 -67 c-2 -13 -14 -19 -41 -21 -32 -3 -37 0 -37 17 0 18 6 21 41 21 33
0 40 -3 37 -17z m92 12 c0 -2 -13 -11 -29 -20 -30 -15 -49 -7 -36 15 6 10 65
15 65 5z m-182 -22 c5 -18 -30 -16 -54 2 -18 14 -17 15 15 13 19 -2 36 -9 39
-15z m72 -63 c0 -5 -13 -10 -30 -10 -16 0 -30 5 -30 10 0 6 14 10 30 10 17 0
30 -4 30 -10z m-10 -85 c0 -51 -2 -55 -23 -55 -20 0 -22 4 -19 43 4 56 9 67
27 67 12 0 15 -12 15 -55z m85 -20 c7 -30 9 -53 4 -50 -4 3 -11 22 -14 43 -4
20 -9 46 -12 57 -3 11 -2 17 2 13 4 -4 13 -32 20 -63z m825 -15 c0 -5 -18 -10
-40 -10 -22 0 -40 5 -40 10 0 6 18 10 40 10 22 0 40 -4 40 -10z m-841 -61 c17
-6 31 -14 31 -17 0 -4 -52 -7 -115 -7 -81 0 -115 3 -115 12 0 6 6 14 13 16 23
10 154 7 186 -4z m98 -25 c-3 -3 -12 -4 -19 -1 -8 3 -5 6 6 6 11 1 17 -2 13
-5z m-160 -24 c19 0 22 -6 25 -55 3 -51 2 -55 -19 -55 -20 0 -23 5 -23 35 0
24 -5 35 -15 35 -10 0 -15 -11 -15 -35 0 -33 -2 -35 -35 -35 -34 0 -35 1 -35
39 0 22 -3 46 -6 54 -4 12 3 17 28 20 18 2 42 3 53 1 11 -2 30 -4 42 -4z m869
-57 c-11 -11 -19 6 -11 24 8 17 8 17 12 0 3 -10 2 -21 -1 -24z m-48 15 c-3 -7
-11 -13 -18 -13 -7 0 -15 6 -17 13 -3 7 4 12 17 12 13 0 20 -5 18 -12z m2 -54
c0 -14 -3 -15 -17 -3 -10 7 -20 15 -22 16 -2 2 5 3 17 3 14 0 22 -6 22 -16z
m57 1 c3 -9 3 -18 1 -21 -9 -9 -38 8 -38 22 0 19 29 18 37 -1z m78 -5 c-3 -5
-10 -10 -16 -10 -5 0 -9 5 -9 10 0 6 7 10 16 10 8 0 12 -4 9 -10z m-921 -55
c5 -13 -13 -15 -119 -15 -114 0 -137 5 -118 23 3 4 57 7 119 7 90 0 113 -3
118 -15z m836 -5 c0 -5 -9 -10 -20 -10 -11 0 -20 5 -20 10 0 6 9 10 20 10 11
0 20 -4 20 -10z m-715 -21 c16 -16 -10 -31 -51 -27 -32 2 -40 7 -42 27 -4 23
-2 24 40 17 23 -4 47 -11 53 -17z m809 -48 c19 -84 19 -81 2 -81 -9 0 -16 17
-20 48 -4 26 -9 59 -12 75 -3 15 -1 27 4 27 6 0 18 -31 26 -69z m-736 37 c20
-20 14 -28 -23 -28 -38 0 -38 0 -29 24 7 19 35 21 52 4z m632 -158 l0 -160
-27 0 -26 0 6 108 c10 163 18 212 33 212 11 0 14 -32 14 -160z m53 -118 c4
-39 3 -43 -17 -40 -16 2 -21 10 -20 31 0 15 2 87 3 160 l4 132 12 -120 c7 -66
15 -139 18 -163z m-913 258 c0 -6 -42 -10 -105 -10 -63 0 -105 4 -105 10 0 6
42 10 105 10 63 0 105 -4 105 -10z m22 -53 c7 -11 11 -57 6 -57 -2 0 -25 7
-52 15 -27 8 -73 15 -103 15 -46 0 -53 3 -53 19 0 12 9 21 23 25 38 8 171 -5
179 -17z m218 -47 l0 -70 -50 0 -50 0 0 64 0 65 38 4 c20 2 43 4 50 5 8 2 12
-18 12 -68z m57 -82 c-2 -29 -3 -6 -3 52 0 58 1 81 3 53 2 -29 2 -77 0 -105z
m233 112 c0 -15 -7 -20 -29 -20 -16 0 -36 -3 -45 -6 -11 -4 -16 0 -16 14 0 20
16 28 68 31 16 1 22 -5 22 -19z m-602 -62 c3 -16 -5 -18 -62 -18 -60 0 -66 2
-66 20 0 19 5 21 62 18 50 -2 63 -6 66 -20z m602 -113 c0 -74 -2 -135 -4 -135
-20 0 -36 16 -36 37 0 18 -8 27 -30 35 l-31 10 3 87 3 86 30 6 c69 15 65 23
65 -126z m-495 105 c3 -5 -1 -10 -9 -10 -8 0 -18 5 -21 10 -3 6 1 10 9 10 8 0
18 -4 21 -10z m965 -14 c-31 -21 -36 -22 -42 -7 -12 28 -9 31 34 31 l42 0 -34
-24z m-962 -32 c51 -14 12 -19 -153 -19 -96 0 -175 3 -175 6 0 3 3 9 7 12 8 9
290 9 321 1z m202 -49 c0 -52 -13 -59 -29 -15 -8 24 -16 30 -40 30 -21 0 -31
5 -31 15 0 11 12 15 50 15 l50 0 0 -45z m542 9 c14 -13 -6 -44 -28 -44 -19 0
-24 5 -24 25 0 20 5 25 23 25 13 0 26 -3 29 -6z m-724 -10 c59 -16 6 -24 -165
-25 -104 0 -210 -4 -238 -9 -27 -4 -52 -6 -54 -4 -10 9 18 25 60 33 51 10 363
14 397 5z m132 -29 c0 -9 -9 -15 -25 -15 -16 0 -25 6 -25 15 0 9 9 15 25 15
16 0 25 -6 25 -15z m210 -10 c0 -16 -6 -25 -15 -25 -9 0 -15 9 -15 25 0 16 6
25 15 25 9 0 15 -9 15 -25z m-160 -39 c178 -14 236 -25 219 -40 -2 -2 -85 3
-184 11 -99 8 -285 16 -412 17 -173 1 -233 4 -233 13 0 7 19 14 43 16 73 8
354 -1 567 -17z m780 -6 c0 -11 -4 -20 -10 -20 -5 0 -10 9 -10 20 0 11 5 20
10 20 6 0 10 -9 10 -20z m-1411 -14 c-2 -2 -19 -6 -37 -9 -24 -5 -32 -3 -29 6
4 14 60 27 66 14 1 -4 1 -10 0 -11z m1318 -51 c6 -27 12 -60 12 -73 2 -39 -21
-19 -39 33 -14 43 -21 50 -55 59 -64 18 -57 38 11 34 l59 -3 12 -50z m-998 29
l61 -7 0 -63 0 -64 -52 1 c-79 1 -103 11 -103 39 0 23 -5 25 -53 28 -44 3 -52
6 -52 23 0 28 -56 27 -65 -1 -3 -11 -12 -20 -20 -20 -7 0 -20 -3 -29 -6 -18
-7 -22 21 -6 46 15 23 193 37 319 24z m109 -77 c2 -55 0 -67 -13 -67 -12 0
-15 14 -15 71 0 52 3 70 13 67 7 -3 13 -29 15 -71z m750 52 c43 -16 16 -22
-73 -14 -66 5 -85 10 -85 22 0 13 10 14 67 8 37 -4 78 -11 91 -16z m-1220 -16
c-4 -37 -38 -45 -38 -10 0 23 10 34 33 36 5 1 7 -11 5 -26z m692 -8 c0 -44
-23 -47 -45 -5 -20 39 -20 40 15 40 28 0 30 -3 30 -35z m808 13 c3 -13 -3 -18
-22 -18 -20 0 -26 5 -26 21 0 15 5 20 22 17 13 -2 24 -11 26 -20z m-698 -14
c0 -11 -8 -14 -27 -12 -39 4 -42 28 -4 28 21 0 31 -5 31 -16z m128 -12 c3 -22
0 -23 -39 -20 -33 2 -44 8 -50 26 -8 22 -7 23 39 20 40 -3 47 -6 50 -26z m100
-12 c6 0 12 -7 12 -15 0 -17 -46 -21 -69 -6 -20 13 -2 34 23 27 11 -3 27 -6
34 -6z m112 -15 c0 -22 -4 -25 -40 -25 -36 0 -40 3 -40 25 0 23 4 25 40 25 36
0 40 -2 40 -25z m50 -10 c0 -16 -6 -25 -15 -25 -9 0 -15 9 -15 25 0 16 6 25
15 25 9 0 15 -9 15 -25z m310 5 c0 -13 -7 -20 -20 -20 -13 0 -20 7 -20 20 0
13 7 20 20 20 13 0 20 -7 20 -20z m50 0 c0 -11 -7 -20 -15 -20 -8 0 -15 9 -15
20 0 11 7 20 15 20 8 0 15 -9 15 -20z m138 -13 c3 -16 -2 -18 -40 -15 -35 2
-44 7 -46 24 -3 19 1 20 40 15 31 -4 44 -11 46 -24z m-2608 -16 c80 -11 260
-34 400 -51 140 -17 266 -32 280 -35 25 -5 330 -36 535 -55 196 -18 509 -40
565 -40 53 0 59 -3 130 -60 64 -51 83 -60 130 -66 61 -8 299 -2 864 21 208 9
381 13 385 10 13 -14 -28 -21 -181 -33 -90 -7 -327 -26 -528 -42 -353 -28
-529 -38 -1070 -61 -255 -10 -589 -32 -1070 -69 -140 -10 -276 -19 -301 -20
l-47 0 -63 108 c-127 217 -166 271 -198 279 -23 6 -42 25 -74 75 -25 37 -40
69 -35 70 13 5 98 -5 278 -31z m464 23 c9 -3 16 -15 16 -26 0 -17 -5 -19 -47
-12 -57 8 -59 9 -43 29 13 15 46 20 74 9z m694 -14 c2 -13 -24 -15 -178 -17
-215 -2 -243 12 -60 31 19 2 80 3 135 2 80 -1 100 -4 103 -16z m-540 -6 c9 -3
10 -9 3 -22 -8 -16 -17 -18 -53 -12 -51 7 -68 16 -68 35 0 11 12 13 53 9 28
-3 58 -7 65 -10z m986 4 c104 -13 136 -29 56 -27 -96 2 -173 14 -178 27 -5 15
7 15 122 0z m244 -11 c3 -16 -2 -18 -35 -15 -27 2 -39 8 -41 21 -3 16 2 18 35
15 27 -2 39 -8 41 -21z m275 -23 c26 -3 47 -10 47 -16 0 -5 -21 -7 -52 -4 -29
3 -88 8 -130 12 -43 3 -81 10 -84 16 -7 10 97 6 219 -8z m-1468 -4 c3 -5 -1
-10 -10 -10 -9 0 -13 5 -10 10 3 6 8 10 10 10 2 0 7 -4 10 -10z m1960 0 c7
-12 -94 -12 -140 0 -22 6 -7 8 52 9 45 0 85 -3 88 -9z m-1485 -31 l0 -31 -47
6 c-27 4 -97 10 -156 15 -113 10 -123 13 -112 30 4 7 62 11 161 11 l154 0 0
-31z m1570 21 c0 -5 -4 -10 -10 -10 -5 0 -10 5 -10 10 0 6 5 10 10 10 6 0 10
-4 10 -10z m-1920 -10 c0 -5 -15 -10 -34 -10 -19 0 -38 5 -41 10 -4 6 10 10
34 10 23 0 41 -4 41 -10z m420 -21 c0 -24 -4 -30 -17 -27 -11 2 -19 14 -21 31
-3 22 1 27 17 27 17 0 21 -6 21 -31z m393 25 c29 -4 47 -12 50 -23 3 -9 8 -24
12 -33 6 -16 1 -18 -36 -17 -67 2 -92 12 -112 47 l-19 32 30 0 c16 0 50 -3 75
-6z m-211 -20 c4 -3 8 -15 8 -26 0 -20 -4 -21 -67 -15 -64 6 -83 16 -83 46 0
11 13 12 67 7 36 -4 70 -9 75 -12z m368 -6 c0 -7 3 -24 7 -37 9 -33 -13 -24
-38 17 l-21 32 26 0 c14 0 26 -6 26 -12z m189 -30 c11 -23 19 -44 16 -46 -2
-2 -19 -2 -38 2 -26 5 -37 14 -50 41 -22 46 -22 45 17 45 30 0 36 -5 55 -42z
m207 26 c37 -4 43 -9 57 -44 l15 -40 -38 0 c-33 0 -41 5 -58 34 -20 34 -50 46
-118 46 -19 0 -34 5 -34 11 0 10 57 8 176 -7z m237 -1 c4 -2 7 -11 7 -19 0
-10 -12 -14 -44 -14 -43 0 -45 -1 -48 -32 l-3 -33 -28 52 c-15 29 -27 55 -27
59 0 7 129 -5 143 -13z m161 1 c11 -29 6 -34 -34 -34 -22 0 -40 4 -40 9 0 5
-3 16 -6 25 -5 13 1 16 34 16 27 0 42 -5 46 -16z m95 7 c13 -3 28 -16 32 -29
8 -20 5 -22 -30 -22 -38 0 -52 9 -64 43 -7 18 15 21 62 8z m221 -40 c0 -4 -27
-9 -61 -10 -39 -1 -58 2 -54 9 7 12 115 14 115 1z m-776 -17 c11 -29 6 -34
-29 -34 -19 0 -35 4 -35 9 0 5 -3 16 -6 25 -5 13 1 16 29 16 23 0 37 -6 41
-16z m324 -26 c3 -15 -4 -18 -32 -18 -20 0 -36 2 -36 4 0 2 -3 12 -6 21 -6 14
-1 16 32 13 27 -2 40 -8 42 -20z m50 -1 c5 -24 -15 -21 -21 4 -3 13 -1 19 6
16 7 -2 13 -11 15 -20z m102 9 c0 -2 3 -11 6 -20 5 -12 -1 -16 -23 -16 -28 0
-53 15 -53 32 0 4 16 8 35 8 19 0 35 -2 35 -4z m53 -17 c3 -13 1 -19 -6 -16
-15 5 -22 37 -9 37 5 0 12 -9 15 -21z m75 -1 c5 -26 -35 -23 -48 3 -11 19 -9
20 17 17 17 -2 29 -10 31 -20z m202 -4 c0 -11 -8 -14 -27 -12 -39 4 -42 28 -4
28 21 0 31 -5 31 -16z m240 -54 c0 -11 -4 -20 -9 -20 -5 0 -16 -3 -25 -6 -11
-4 -16 0 -16 14 0 20 12 30 38 31 6 1 12 -8 12 -19z m-92 -25 c-6 -7 -460 -26
-466 -20 -3 3 -3 7 0 10 5 5 460 22 467 18 2 -2 2 -5 -1 -8z m-1418 -196
c-113 -10 -344 -27 -515 -39 -170 -12 -452 -32 -625 -46 -352 -27 -360 -27
-360 -16 0 10 711 66 1285 101 382 24 478 24 215 0z m-1465 -176 c33 -50 32
-66 -2 -24 -25 29 -31 31 -54 22 -38 -14 -45 -1 -12 21 37 24 38 24 68 -19z"/>
<path d="M2732 2538 c7 -20 48 -23 48 -4 0 11 -9 16 -26 16 -16 0 -24 -5 -22
-12z"/>
<path d="M1022 2181 l-42 -49 53 -55 53 -54 35 56 c22 37 33 66 31 84 -3 24
-8 27 -38 27 -27 0 -34 4 -34 20 0 31 -13 24 -58 -29z"/>
<path d="M1420 2180 c-8 -5 -28 -10 -45 -10 -22 0 -37 -9 -57 -34 -16 -19 -28
-37 -28 -40 0 -4 18 -6 41 -6 32 0 46 6 72 33 18 18 43 40 57 49 l25 17 -25 0
c-14 1 -32 -4 -40 -9z"/>
<path d="M1710 2119 c-31 -17 -47 -18 -132 -13 -116 7 -138 -11 -25 -20 158
-14 546 -36 612 -35 117 2 19 15 -223 30 l-212 13 27 23 c25 20 26 22 8 22
-11 0 -36 -9 -55 -20z"/>
<path d="M2420 2050 c77 -11 400 -11 375 0 -11 5 -112 8 -225 8 -138 -1 -187
-3 -150 -8z"/>
</g>
</svg>